<svg xmlns="http://www.w3.org/2000/svg" xmlns:xlink="http://www.w3.org/1999/xlink" viewBox="0 0 115 25"><style>@keyframes drop{0%,70%{transform:translateY(25px)}30%{transform:translateY(-10px) scale(.1)}30.001%{transform:translateY(25px) scale(1)}}@keyframes blink{0%{fill:#fff}}svg text{transform-origin:50% 50%;transform:translate(0,-40%) rotate(180deg)}svg{width:100vw;position:fixed;top:-5px;transform:rotate(180deg);overflow:visible}rect.headerRect{fill:#000;fill-opacity:20%}rect.headerRect:hover{fill:#ff0;fill-opacity:50%}.wave{animation:wave 3s linear;animation-iteration-count:infinite;fill:#4478e3}.wave:hover{fill:#06c}.drop:hover{fill:#c9ffe5}.drop{fill:#4478e3;xfill:#99000055;animation:drop 8.2s linear infinite normal;stroke:#4478e3;stroke-width:.5;transform:translateY(25px);transform-box:fill-box;transform-origin:50% 100%}#wave2,.drop2{animation-duration:5s}.drop2{animation-delay:3s}.drop3{animation-delay:-2s;animation-duration:5.4s}.drop4{animation-delay:1.7s;animation-duration:2.4s}.drop5{animation-delay:2.7s;animation-duration:5.1s}.drop6{animation-delay:-2.1s;animation-duration:5.2s}.gooeff{filter:url(#goo)}#wave2{animation-direction:reverse;opacity:.6}#wave3{animation-duration:7s;opacity:.3}g.typingUnderline rect{animation:blink .5s infinite,underline_move 4s steps(24,end) forwards}</style><defs><filter id="goo"><feGaussianBlur in="SourceGraphic" result="blur" stdDeviation="1"/><feColorMatrix in="blur" mode="matrix" result="goo" values="1 0 0 0 0 0 1 0 0 0 0 0 1 0 0 0 0 0 13 -9"/><xfeBlend in="SourceGraphic" in2="goo"/></filter><path id="wave" d="M 0,10 C 30,10 30,15 60,15 90,15 90,10 120,10 150,10 150,15 180,15 210,15 210,10 240,10 v 28 h -240 z"/></defs><rect width="100%" height=".4" x="0" y="1" fill="#AAA" fill-opacity="50%"/><use id="wave3" x="0" y="-2" class="wave" xlink:href="#wave"/><use id="wave2" x="0" y="0" class="wave" xlink:href="#wave"/><g class="gooeff" filter="url(#goo)"><circle cx="29" cy="2" r="8.8" class="drop drop1"/><circle cx="35" cy="2.5" r="7.5" class="drop drop2"/><circle cx="26" cy="2.8" r="9.2" class="drop drop3"/><circle cx="14" cy="2" r="8.8" class="drop drop4"/><circle cx="22" cy="2.5" r="7.5" class="drop drop5"/><circle cx="6" cy="2.8" r="9.2" class="drop drop6"/><circle cx="5" cy="4.4" r="8.8" class="drop drop1"/><circle cx="15" cy="4.1" r="7.5" class="drop drop2"/><circle cx="8" cy="3.8" r="9.2" class="drop drop3"/><circle cx="3" cy="4.4" r="8.8" class="drop drop4"/><circle cx="7" cy="4.1" r="7.5" class="drop drop5"/><circle cx="10" cy="4.3" r="9.2" class="drop drop6"/><circle cx="1.2" cy="5.4" r="8.8" class="drop drop1"/><circle cx="5.2" cy="5.1" r="7.5" class="drop drop2"/><circle cx=".2" cy="5.3" r="9.2" class="drop drop3"/><circle cx="3.2" cy="5.4" r="8.8" class="drop drop4"/><circle cx="14.2" cy="5.1" r="7.5" class="drop drop5"/><circle cx="17.2" cy="4.8" r="9.2" class="drop drop6"/><use id="wave1" x="0" y="1" class="wave" xlink:href="#wave"/></g><rect width="70" height="7.3" x="20" y="16.8" class="headerRect" rx="1"/><path id="nameTyping"><animate fill="freeze" attributeName="d" begin="0s" dur="10.05s" from="m38,-6 h0" to="m38,-6 h100"/></path><text fill="#fff" font-family="Courier New" font-size=".22em" font-weight="bold" letter-spacing="2"><textPath xlink:href="#nameTyping">SAAHIL ALI</textPath></text><g class="typingUnderline"><rect width="2.5" height=".4" x="69" y="20.5" fill="#FFF" xlink:href="#underlineTyping"><animate fill="freeze" attributeName="visible" dur="1s" from="hidden" to="visible"/></rect></g><path id="descriptionTyping"><animate fill="freeze" attributeName="d" begin="0s" dur="5.8s" from="m30,-3 h0" to="m30,-3 h100"/></path><text x="64" fill="#fff" alignment-baseline="hanging" font-family="Helvetica" font-size=".12em" font-style="italic" text-anchor="end"><textPath xlink:href="#descriptionTyping">M.Tech Student @DAVV, IN</textPath></text></svg>